<?xml version="1.0" standalone="no"?>
<!DOCTYPE svg PUBLIC "-//W3C//DTD SVG 1.0//EN" "http://www.w3.org/TR/2001/REC-SVG-20010904/DTD/svg10.dtd">
<svg xmlns="http://www.w3.org/2000/svg" xmlns:xlink="http://www.w3.org/1999/xlink" id="body_1" width="67" height="50">

<g transform="matrix(0.125625 0 0 0.125625 -0 12.4375)">
	<g>
        <path d="M153.24933 145.2828C 148.90399 145.2828 146.81999 146.936 144.408 148.85054C 141.78934 150.93066 138.81866 153.2864 133.07974 153.2864C 127.34014 153.2864 124.370804 150.93068 121.75161 148.85054C 119.34014 146.936 117.25681 145.2828 112.91307 145.2828C 108.56774 145.2828 106.4844 146.936 104.07294 148.85054C 101.453064 150.93066 98.4844 153.2864 92.7448 153.2864C 87.005196 153.2864 84.03641 150.93068 81.4172 148.85054C 79.005196 146.936 76.92186 145.2828 72.57814 145.2828C 68.23442 145.2828 66.1516 146.936 63.7396 148.85054C 61.874603 150.49179 59.707386 151.75352 57.35934 152.56506C 68.60919 162.4812 82.75737 168.5044 97.70267 169.74013C 98.1208 169.77452 98.540665 169.80786 98.961464 169.83598C 100.46667 169.93332 101.98067 169.99998 103.51039 169.99998C 105.040665 169.99998 106.554665 169.93332 108.05986 169.83598C 108.48066 169.80785 108.89946 169.77452 109.31932 169.74013C 127.591095 168.21681 144.5322 159.57327 156.48932 145.67346C 155.43042 145.40544 154.34157 145.27417 153.24931 145.2828" stroke="none" fill="#239DE0" fill-rule="nonzero" />
	</g>
	<g>
        <path d="M52.412 93.07081C 57.135998 93.07081 59.464527 91.22294 61.92973 89.26561C 64.53026 87.20107 67.21933 85.06614 72.57813 85.06614C 77.936935 85.06614 80.626 87.20108 83.227066 89.26561C 85.69214 91.22294 88.02026 93.07081 92.744804 93.07081C 97.469345 93.07081 99.79733 91.22294 102.26308 89.26561C 104.86361 87.20107 107.55308 85.06614 112.91308 85.06614C 118.27082 85.06614 120.960945 87.20108 123.56148 89.26561C 126.02602 91.22294 128.35414 93.07081 133.07974 93.07081C 137.80534 93.07081 140.13335 91.22294 142.59868 89.26561C 145.19868 87.20107 147.88934 85.06614 153.24934 85.06614C 158.608 85.06614 161.29868 87.20108 163.90001 89.26561C 166.31735 91.18494 168.61868 92.98961 173.164 93.05787C 172.53983 86.77892 171.06268 80.614334 168.77333 74.734406C 166.64798 73.96576 164.68726 72.801865 162.99466 71.304146C 160.47733 69.306816 158.10133 67.41975 153.24934 67.41975C 148.39735 67.41975 146.02002 69.306816 143.50401 71.304146C 140.95067 73.33028 138.31201 75.424545 133.07974 75.424545C 127.84747 75.424545 125.20841 73.32974 122.65627 71.304146C 120.14067 69.306816 117.764 67.41975 112.91307 67.41975C 108.06147 67.41975 105.68388 69.306816 103.16828 71.304146C 100.61561 73.33028 97.97707 75.424545 92.74481 75.424545C 87.513084 75.424545 84.87454 73.32974 82.3224 71.304146C 79.806274 69.306816 77.42973 67.41975 72.57813 67.41975C 67.72707 67.41975 65.35053 69.306816 62.83493 71.304146C 60.282272 73.32974 57.64373 75.424545 52.412003 75.424545C 47.179733 75.424545 44.541203 73.32974 41.989075 71.304146C 41.423473 70.85468 40.861473 70.41454 40.280273 69.99695C 37.953712 74.882286 36.206245 80.02286 35.07346 85.314C 38.625458 85.917206 40.80106 87.60414 42.89372 89.2656C 45.358788 91.22294 47.687458 93.0708 52.411987 93.0708" stroke="none" fill="#239DE0" fill-rule="nonzero" />
	</g>
	<g>
        <path d="M52.412 74.3328C 57.263058 74.3328 59.64013 72.44587 62.155727 70.44893C 64.707855 68.42347 67.3464 66.327995 72.578125 66.327995C 77.80985 66.327995 80.44839 68.42346 83.00053 70.44893C 85.5172 72.44586 87.893196 74.3328 92.7448 74.3328C 97.5964 74.3328 99.97294 72.44587 102.48959 70.44893C 105.04173 68.42347 107.67973 66.327995 112.91306 66.327995C 118.14479 66.327995 120.782265 68.42346 123.33493 70.44893C 125.8516 72.44586 128.22813 74.3328 133.07973 74.3328C 137.93066 74.3328 140.30798 72.44587 142.82399 70.44893C 145.37733 68.42347 148.01599 66.327995 153.24933 66.327995C 158.48132 66.327995 161.12132 68.42346 163.67332 70.44893C 165.04587 71.63674 166.582 72.62111 168.23465 73.37186C 157.78052 47.93644 133.3967 30.982994 105.91284 30.041107C 78.428986 29.09922 52.94173 44.34356 40.7708 69.0036C 41.43067 69.469734 42.052673 69.96094 42.667202 70.448944C 45.18386 72.44588 47.560402 74.33282 52.412003 74.33282" stroke="none" fill="#239DE0" fill-rule="nonzero" />
	</g>
	<g>
        <path d="M153.24933 125.81613C 148.77733 125.81613 146.64665 127.50734 144.18266 129.464C 141.60933 131.5068 138.69333 133.82133 133.07973 133.82133C 127.466125 133.82133 124.551056 131.5068 121.97813 129.464C 119.51199 127.50735 117.38279 125.81613 112.913055 125.81613C 108.441734 125.81613 106.31252 127.50734 103.8464 129.464C 101.27347 131.5068 98.35734 133.82133 92.7448 133.82133C 87.132256 133.82133 84.216125 131.5068 81.64319 129.464C 79.17759 127.50735 77.04892 125.81613 72.578125 125.81613C 68.10733 125.81613 65.97865 127.50734 63.513054 129.464C 60.940125 131.5068 58.025055 133.82133 52.411995 133.82133C 46.799454 133.82133 43.883324 131.5068 41.310394 129.464C 40.657856 128.94588 40.026524 128.45 39.370796 127.99641C 42.834763 135.89508 47.72318 143.08853 53.791725 149.21721C 57.221855 148.90161 59.111454 147.41454 61.250526 145.71614C 63.870255 143.63748 66.83906 141.28027 72.578125 141.28027C 78.317726 141.28027 81.28639 143.63747 83.90572 145.71614C 86.317726 147.63068 88.401054 149.28387 92.74478 149.28387C 97.08905 149.28387 99.171844 147.63069 101.584915 145.71614C 104.20306 143.63748 107.173454 141.28027 112.913055 141.28027C 118.65266 141.28027 121.62079 143.63747 124.239586 145.71614C 126.65266 147.63068 128.736 149.28387 133.07971 149.28387C 137.42397 149.28387 139.50798 147.63069 141.91866 145.71614C 144.53865 143.63748 147.50934 141.28027 153.24933 141.28027C 155.28174 141.25117 157.30058 141.61546 159.19464 142.35307C 161.6947 139.07063 163.90018 135.57388 165.78532 131.90361C 164.56638 131.1825 163.4059 130.36678 162.31465 129.464C 159.85065 127.50735 157.71999 125.81613 153.24933 125.81613" stroke="none" fill="#239DE0" fill-rule="nonzero" />
	</g>
	<g>
        <path d="M173.30133 94.8776C 168.03065 94.8416 165.34799 92.737465 162.76799 90.690674C 160.30399 88.73387 157.97333 86.885475 153.24933 86.885475C 148.524 86.885475 146.19464 88.73387 143.72932 90.690674C 141.12932 92.7552 138.43866 94.89014 133.07973 94.89014C 127.71973 94.89014 125.0312 92.7552 122.429726 90.690674C 119.96452 88.73387 117.6364 86.885475 112.91306 86.885475C 108.187454 86.885475 105.85932 88.73387 103.39479 90.690674C 100.79265 92.7552 98.10412 94.89014 92.74479 94.89014C 87.38599 94.89014 84.69692 92.7552 82.09585 90.690674C 79.630646 88.73387 77.30266 86.885475 72.57812 86.885475C 67.85412 86.885475 65.525986 88.73387 63.060387 90.690674C 60.46039 92.7552 57.770786 94.89014 52.411987 94.89014C 47.052647 94.89014 44.363586 92.7552 41.763058 90.690674C 39.776516 89.114006 37.85679 87.62495 34.722916 87.09947C 34.091957 90.46667 33.709877 93.87562 33.579716 97.298935C 33.544785 98.19694 33.510387 99.093735 33.510387 100.00001C 33.510387 100.90628 33.54479 101.80414 33.579716 102.70214C 33.594257 103.0932 33.601585 103.48641 33.622917 103.87601C 38.21306 104.22654 40.818256 106.2552 43.12026 108.08281C 45.53386 109.99841 47.813988 111.80827 52.411987 111.80827C 57.009987 111.80827 59.28959 109.99841 61.703056 108.08281C 64.22973 106.07654 67.09212 103.80414 72.57812 103.80414C 78.06412 103.80414 80.927055 106.07654 83.45306 108.08281C 85.86719 109.99841 88.14732 111.80827 92.74479 111.80827C 97.342255 111.80827 99.62292 109.99841 102.03639 108.08281C 104.56252 106.07654 107.42545 103.80414 112.91306 103.80414C 118.39839 103.80414 121.26199 106.07654 123.78745 108.08281C 126.202126 109.99841 128.48172 111.80827 133.07973 111.80827C 137.67732 111.80827 139.95866 109.99841 142.372 108.08281C 144.89865 106.07654 147.76268 103.80414 153.24933 103.80414C 158.73598 103.80414 161.59866 106.07654 164.12534 108.08281C 166.36934 109.86361 168.52266 111.53335 172.50267 111.76308C 172.86401 109.63335 173.12668 107.473434 173.29066 105.28334C 173.356 104.42707 173.40933 103.56934 173.44133 102.70521L173.44133 102.70521L173.44133 97.29586C 173.40933 96.430664 173.30133 94.877594 173.30133 94.877594" stroke="none" fill="#239DE0" fill-rule="nonzero" />
	</g>
	<g>
        <path d="M153.24933 106.35107C 148.64932 106.35107 146.36932 108.16093 143.956 110.0776C 141.42934 112.0828 138.56532 114.3552 133.07973 114.3552C 127.59373 114.3552 124.73067 112.0828 122.204124 110.07759C 119.79066 108.160934 117.51039 106.35106 112.913055 106.35106C 108.315056 106.35106 106.03387 108.16093 103.61973 110.07759C 101.09373 112.082794 98.23066 114.3552 92.7448 114.3552C 87.258934 114.3552 84.39586 112.0828 81.86973 110.07759C 79.45573 108.160934 77.17547 106.35106 72.578125 106.35106C 67.98078 106.35106 65.70052 108.16093 63.286926 110.07759C 60.760925 112.082794 57.897865 114.3552 52.411995 114.3552C 46.926537 114.3552 44.062523 112.0828 41.536396 110.07759C 39.415066 108.39372 37.395325 106.79426 33.818268 106.43026C 34.345306 112.21388 35.596046 117.90849 37.5412 123.38066C 39.667946 124.20325 41.633064 125.39422 43.346397 126.89893C 45.811996 128.85626 47.940666 130.54694 52.412 130.54694C 56.882797 130.54694 59.011997 128.85626 61.47707 126.89893C 64.05 124.856804 66.9656 122.54213 72.57814 122.54213C 78.19068 122.54213 81.10681 124.85679 83.67974 126.898926C 86.1448 128.85626 88.274 130.54692 92.7448 130.54692C 97.21559 130.54692 99.34534 128.85625 101.80987 126.89892C 104.3828 124.85679 107.29947 122.542114 112.913055 122.542114C 118.525055 122.542114 121.44173 124.85677 124.01399 126.89891C 126.479195 128.85625 128.6084 130.5469 133.07973 130.5469C 137.55066 130.5469 139.68 128.85623 142.14532 126.8989C 144.71866 124.85677 147.636 122.5421 153.24933 122.5421C 158.86133 122.5421 161.77866 124.85676 164.35199 126.898895C 165.2572 127.651184 166.21327 128.34018 167.21332 128.96089C 169.36398 124.263466 170.98291 119.3404 172.04 114.28334C 167.45065 113.93387 164.844 111.904144 162.54134 110.077614C 160.128 108.16094 157.848 106.35108 153.24933 106.35108" stroke="none" fill="#239DE0" fill-rule="nonzero" />
	</g>
	<g>
        <path d="M141.91866 145.71614C 139.508 147.63068 137.424 149.28387 133.07973 149.28387C 128.736 149.28387 126.65266 147.63068 124.239586 145.71614C 121.6208 143.63747 118.65266 141.28027 112.913055 141.28027C 107.173454 141.28027 104.20306 143.63747 101.58492 145.71614C 99.17185 147.63068 97.089066 149.28387 92.7448 149.28387C 88.401054 149.28387 86.317726 147.63068 83.90572 145.71614C 81.286385 143.63747 78.317726 141.28027 72.57811 141.28027C 66.83905 141.28027 63.87025 143.63747 61.25051 145.71614C 59.11145 147.41454 57.22185 148.9016 53.79171 149.2172C 54.93958 150.37599 56.13438 151.48799 57.35931 152.56506C 59.707355 151.75352 61.874573 150.49179 63.73957 148.85054C 66.15157 146.936 68.23437 145.2828 72.57811 145.2828C 76.92185 145.2828 79.00518 146.936 81.41717 148.85054C 84.03637 150.93066 87.005165 153.2864 92.74478 153.2864C 98.4844 153.2864 101.45305 150.93068 104.072914 148.85054C 106.48438 146.936 108.56771 145.2828 112.913055 145.2828C 117.25678 145.2828 119.34012 146.936 121.75159 148.85054C 124.37079 150.93066 127.34012 153.2864 133.07971 153.2864C 138.81865 153.2864 141.7893 150.93068 144.40799 148.85054C 146.81999 146.936 148.90399 145.2828 153.24931 145.2828C 154.34158 145.27419 155.43044 145.40547 156.48932 145.67348C 157.42133 144.5932 158.32799 143.48907 159.19464 142.35307C 157.30058 141.61546 155.28174 141.25117 153.24933 141.28027C 147.50932 141.28027 144.53867 143.63747 141.91866 145.71614" stroke="none" fill="#FFFFFF" fill-rule="nonzero" />
	</g>
	<g>
        <path d="M153.24933 122.54213C 147.636 122.54213 144.71866 124.8568 142.14532 126.89894C 139.68 128.85628 137.55066 130.54694 133.07973 130.54694C 128.6084 130.54694 126.479195 128.85626 124.014 126.89893C 121.44174 124.856804 118.52507 122.54212 112.91307 122.54212C 107.29947 122.54212 104.3828 124.85679 101.80987 126.89893C 99.34533 128.85626 97.2156 130.54694 92.74481 130.54694C 88.274025 130.54694 86.14481 128.85626 83.67974 126.89893C 81.10681 124.856804 78.19068 122.54212 72.57814 122.54212C 66.9656 122.54212 64.05 124.8568 61.47706 126.89894C 59.011997 128.85628 56.882797 130.54694 52.412 130.54694C 47.94066 130.54694 45.812 128.85626 43.346397 126.89893C 41.63306 125.39422 39.667942 124.20325 37.5412 123.38066C 38.096928 124.94586 38.706795 126.48444 39.3708 127.99639C 40.02653 128.45 40.65787 128.94585 41.310402 129.46399C 43.88333 131.50679 46.79946 133.82132 52.412003 133.82132C 58.025063 133.82132 60.940132 131.50679 63.51306 129.46399C 65.97866 127.50733 68.10733 125.81612 72.57813 125.81612C 77.048935 125.81612 79.17759 127.507324 81.64319 129.46399C 84.216125 131.50679 87.132256 133.82132 92.7448 133.82132C 98.35734 133.82132 101.27347 131.50679 103.8464 129.46399C 106.31253 127.50733 108.441734 125.81612 112.913055 125.81612C 117.3828 125.81612 119.51199 127.507324 121.97813 129.46399C 124.551056 131.50679 127.466125 133.82132 133.07973 133.82132C 138.69333 133.82132 141.60934 131.50679 144.18266 129.46399C 146.64667 127.50733 148.77733 125.81612 153.24933 125.81612C 157.72 125.81612 159.85066 127.507324 162.31465 129.46399C 163.40591 130.36678 164.56638 131.18248 165.78532 131.9036C 166.284 130.93547 166.76 129.95459 167.21332 128.96092C 166.21329 128.34021 165.25722 127.65122 164.35199 126.898926C 161.77866 124.8568 158.86131 122.54213 153.24933 122.54213" stroke="none" fill="#FFFFFF" fill-rule="nonzero" />
	</g>
	<g>
        <path d="M153.24933 103.80414C 147.76266 103.80414 144.89865 106.07653 142.372 108.08281C 139.95866 109.99841 137.67734 111.80827 133.07973 111.80827C 128.48172 111.80827 126.202126 109.99841 123.78746 108.08281C 121.262 106.07654 118.3984 103.80414 112.91306 103.80414C 107.425476 103.80414 104.56253 106.07653 102.0364 108.08281C 99.62293 109.99841 97.34213 111.80827 92.7448 111.80827C 88.14746 111.80827 85.867195 109.99841 83.45306 108.08281C 80.927055 106.07654 78.06399 103.80414 72.578125 103.80414C 67.09226 103.80414 64.229195 106.07653 61.703064 108.08281C 59.289062 109.99841 57.009853 111.80827 52.411995 111.80827C 47.814537 111.80827 45.533867 109.99841 43.120266 108.08281C 40.818268 106.25521 38.213066 104.22654 33.622936 103.87601C 33.669735 104.73227 33.740135 105.58281 33.818268 106.43027C 37.395336 106.794266 39.41507 108.39374 41.5364 110.0776C 44.06253 112.0828 46.92653 114.3552 52.412 114.3552C 57.89787 114.3552 60.76093 112.0828 63.286938 110.07759C 65.70053 108.160934 67.98067 106.35106 72.57814 106.35106C 77.17561 106.35106 79.45574 108.16093 81.86974 110.07759C 84.395874 112.082794 87.258804 114.3552 92.744804 114.3552C 98.230804 114.3552 101.09374 112.0828 103.61974 110.07759C 106.033875 108.160934 108.31507 106.35106 112.91307 106.35106C 117.5104 106.35106 119.79067 108.16093 122.20414 110.07759C 124.73067 112.082794 127.59374 114.3552 133.07974 114.3552C 138.56534 114.3552 141.42934 112.0828 143.95601 110.07759C 146.36934 108.160934 148.64934 106.35106 153.24934 106.35106C 157.848 106.35106 160.128 108.16093 162.54135 110.07759C 164.84402 111.90412 167.45068 113.93386 172.04002 114.28332C 172.21469 113.44999 172.36003 112.60679 172.50269 111.76252C 168.52269 111.53332 166.36935 109.86359 164.12535 108.08278C 161.5987 106.07652 158.73602 103.80411 153.24934 103.80411" stroke="none" fill="#FFFFFF" fill-rule="nonzero" />
	</g>
	<g>
        <path d="M52.412 94.89014C 57.770798 94.89014 60.4604 92.755196 63.0604 90.690674C 65.52547 88.73387 67.854126 86.885475 72.578125 86.885475C 77.302666 86.885475 79.63065 88.73387 82.095856 90.690674C 84.69692 92.7552 87.385994 94.89014 92.7448 94.89014C 98.1036 94.89014 100.792656 92.755196 103.3948 90.690674C 105.85933 88.73387 108.18746 86.885475 112.913055 86.885475C 117.6364 86.885475 119.96452 88.73387 122.429726 90.690674C 125.0312 92.7552 127.71973 94.89014 133.07973 94.89014C 138.43866 94.89014 141.12932 92.755196 143.72931 90.690674C 146.19464 88.73387 148.52397 86.885475 153.24931 86.885475C 157.97331 86.885475 160.30399 88.73387 162.76797 90.690674C 165.34798 92.73747 168.03064 94.847336 173.30132 94.88335L173.30132 94.88335L173.29065 94.716675C 173.2493 94.163605 173.21864 93.607346 173.16399 93.05788C 168.61865 92.98961 166.31732 91.184944 163.9 89.26561C 161.29866 87.20108 158.608 85.06615 153.24933 85.06615C 147.88933 85.06615 145.19867 87.20109 142.59866 89.26561C 140.13332 91.222946 137.80533 93.07081 133.07973 93.07081C 128.35413 93.07081 126.025986 91.222946 123.561455 89.26561C 120.960915 87.20108 118.27078 85.06615 112.913055 85.06615C 107.553055 85.06615 104.863594 87.20109 102.263054 89.26561C 99.797325 91.222946 97.46932 93.07081 92.74478 93.07081C 88.02024 93.07081 85.69211 91.222946 83.22705 89.26561C 80.625984 87.20108 77.93691 85.06615 72.578125 85.06615C 67.21934 85.06615 64.53026 87.20109 61.929726 89.26561C 59.464516 91.222946 57.135986 93.07081 52.411987 93.07081C 47.687458 93.07081 45.358795 91.222946 42.893726 89.26561C 40.801056 87.60415 38.625458 85.91722 35.073456 85.31401C 34.946926 85.90574 34.833855 86.50267 34.722927 87.09948C 37.85679 87.62494 39.776527 89.114006 41.763058 90.69068C 44.363586 92.75521 47.052658 94.890144 52.411987 94.890144" stroke="none" fill="#FFFFFF" fill-rule="nonzero" />
	</g>
	<g>
        <path d="M52.412 75.42454C 57.64373 75.42454 60.282257 73.329735 62.83493 71.30414C 65.35053 69.30681 67.72706 67.41974 72.57813 67.41974C 77.42973 67.41974 79.80626 69.30681 82.322395 71.30414C 84.87453 73.329735 87.51306 75.42454 92.7448 75.42454C 97.97706 75.42454 100.6156 73.33028 103.16827 71.30414C 105.68387 69.30681 108.061455 67.41974 112.91306 67.41974C 117.76399 67.41974 120.140656 69.30681 122.65625 71.30414C 125.20838 73.329735 127.84732 75.42454 133.07971 75.42454C 138.3121 75.42454 140.95065 73.33028 143.50397 71.30414C 146.01997 69.30681 148.3973 67.41974 153.2493 67.41974C 158.1013 67.41974 160.4773 69.30681 162.99463 71.30414C 164.68721 72.80186 166.64792 73.96575 168.77328 74.734406C 168.59596 74.27866 168.41995 73.8224 168.23462 73.371864C 166.58197 72.62112 165.04584 71.63675 163.6733 70.44894C 161.12129 68.42348 158.4813 66.328 153.2493 66.328C 148.01596 66.328 145.3773 68.42347 142.82396 70.44894C 140.30795 72.44587 137.93063 74.33281 133.07968 74.33281C 128.22809 74.33281 125.851555 72.44588 123.334885 70.44894C 120.78221 68.42348 118.14475 66.328 112.913025 66.328C 107.67969 66.328 105.041695 68.42347 102.489555 70.44894C 99.972885 72.44587 97.59636 74.33281 92.74476 74.33281C 87.89316 74.33281 85.51716 72.44588 83.00049 70.44894C 80.44835 68.42348 77.80982 66.328 72.57809 66.328C 67.34635 66.328 64.70782 68.42347 62.155685 70.44894C 59.640087 72.44587 57.263016 74.33281 52.411957 74.33281C 47.560356 74.33281 45.183815 72.44588 42.667156 70.44894C 42.052616 69.96094 41.430626 69.469734 40.770756 69.00359C 40.606216 69.33492 40.439556 69.6636 40.280228 69.99693C 40.861427 70.414536 41.423428 70.85466 41.98903 71.30413C 44.54116 73.32973 47.179688 75.42453 52.411957 75.42453" stroke="none" fill="#FFFFFF" fill-rule="nonzero" />
	</g>
	<g>
		<g>
			<g>
                <path d="M249.64551 73.61865L225.40479 128.58008L218.605 128.58008L194.36426 73.61865L201.16455 73.61865L222.04492 120.90039L242.84521 73.61865L249.64551 73.61865z" stroke="none" fill="#696566" fill-rule="nonzero" />
			</g>
			<g>
                <path d="M262.44287 79.53906L262.44287 97.61914L292.2832 97.61914L292.2832 103.53906L262.44287 103.53906L262.44287 122.660164L295.56445 122.660164L295.56445 128.58008L256.12305 128.58008L256.12305 73.61865L295.56445 73.61865L295.56445 79.53906L262.44287 79.53906z" stroke="none" fill="#696566" fill-rule="nonzero" />
			</g>
			<g>
                <path d="M339.24414 122.66016L339.24414 128.58008L303.00293 128.58008L303.00293 73.61865L309.24316 73.61865L309.24316 122.660164L339.24414 122.66016z" stroke="none" fill="#696566" fill-rule="nonzero" />
			</g>
			<g>
                <path d="M352.20312 79.53906L352.20312 97.61914L382.044 97.61914L382.044 103.53906L352.20312 103.53906L352.20312 122.660164L385.32422 122.660164L385.32422 128.58008L345.8828 128.58008L345.8828 73.61865L385.32422 73.61865L385.32422 79.53906L352.20312 79.53906z" stroke="none" fill="#696566" fill-rule="nonzero" />
			</g>
			<g>
                <path d="M421.24316 108.25977L435.4834 128.58008L428.36328 128.58008L414.44336 108.82031L399.8828 108.82031L399.8828 128.58008L393.64258 128.58008L393.64258 73.61865L415.9629 73.61865C 427.32324 73.61865 436.20312 80.89893 436.20312 91.21924C 436.20312 99.85938 429.9629 106.41992 421.24316 108.25977zM399.8828 102.899414L414.8428 102.899414C 423.8028 102.899414 429.8828 98.5796 429.8828 91.219246C 429.8828 83.858894 423.80273 79.53906 414.8428 79.53906L414.8428 79.53906L399.8828 79.53906z" stroke="none" fill="#696566" fill-rule="nonzero" />
			</g>
			<g>
                <path d="M441.082 101.05957C 441.082 85.61914 454.04294 72.65869 469.24313 72.65869C 484.5234 72.65869 497.3242 85.61914 497.3242 101.05957C 497.3242 116.5 484.52344 129.54 469.24316 129.54C 454.043 129.54 441.082 116.5 441.082 101.05957zM491.00388 101.05957C 491.00388 88.81934 481.08395 78.41895 469.24313 78.41895C 457.4023 78.41895 447.4023 88.81934 447.4023 101.05957C 447.4023 113.37988 457.4023 123.7793 469.24313 123.7793C 481.08395 123.7793 491.0039 113.37988 491.0039 101.05957z" stroke="none" fill="#696566" fill-rule="nonzero" />
			</g>
		</g>
	</g>
</g>
</svg>