<?xml version="1.0" standalone="no"?>
<!DOCTYPE svg PUBLIC "-//W3C//DTD SVG 20010904//EN"
 "http://www.w3.org/TR/2001/REC-SVG-20010904/DTD/svg10.dtd">
<svg version="1.0" xmlns="http://www.w3.org/2000/svg"
 width="285.000000pt" height="225.000000pt" viewBox="0 0 285.000000 225.000000"
 preserveAspectRatio="xMidYMid meet">

<g transform="translate(0.000000,225.000000) scale(0.100000,-0.100000)"
fill="#000000" stroke="none">
<path d="M2098 2225 c-15 -8 -31 -30 -38 -49 -10 -31 -8 -41 24 -104 20 -39
39 -73 43 -75 5 -3 35 -8 69 -12 l60 -7 -18 109 c-15 92 -21 111 -43 131 -30
25 -59 27 -97 7z"/>
<path d="M1846 2207 c-27 -27 -31 -61 -41 -302 -8 -188 -19 -245 -67 -344 -68
-143 -195 -249 -353 -297 -46 -15 -92 -19 -200 -18 -162 0 -252 14 -385 58
-83 27 -108 31 -200 30 -82 0 -118 -5 -165 -22 -107 -40 -206 -24 -300 47 -30
23 -61 41 -69 41 -33 0 -51 -50 -51 -140 0 -97 13 -130 76 -195 l38 -40 -15
-50 c-31 -103 -22 -193 54 -525 38 -168 72 -321 76 -341 8 -43 40 -76 87 -89
19 -6 85 -10 146 -10 104 0 113 2 113 19 0 30 -38 70 -81 82 l-39 12 0 111 0
111 62 12 c84 16 193 72 250 129 l48 47 75 -37 c179 -87 388 -135 635 -145
l164 -6 18 -120 c31 -204 35 -208 221 -213 81 -3 133 0 139 6 19 19 -24 75
-70 92 l-42 14 0 136 0 135 73 34 c87 41 189 139 229 221 51 103 58 154 58
407 l0 233 28 11 c124 46 328 139 365 165 67 49 99 110 105 199 l5 74 -176 3
c-169 3 -176 4 -201 27 -14 13 -29 42 -33 65 l-8 40 -85 27 c-47 15 -121 33
-165 40 l-81 12 -59 124 c-32 68 -68 131 -79 139 -31 21 -74 17 -100 -9z"/>
<path d="M2149 412 c-31 -20 -70 -45 -88 -54 -31 -17 -31 -18 -31 -97 0 -78 1
-81 29 -95 42 -22 89 -81 97 -121 l6 -35 89 0 c56 0 89 4 89 10 0 39 -66 100
-109 100 -8 0 -11 52 -11 165 0 91 -3 165 -7 165 -5 0 -33 -17 -64 -38z"/>
<path d="M645 318 c-38 -15 -78 -27 -87 -28 -15 0 -18 -10 -18 -57 0 -57 1
-59 38 -80 35 -20 70 -70 86 -125 5 -15 18 -18 91 -18 76 0 85 2 85 19 0 30
-38 70 -80 82 l-39 12 -3 111 -3 112 -70 -28z"/>
</g>
</svg>
