<?xml version="1.0" standalone="no"?>
<!DOCTYPE svg PUBLIC "-//W3C//DTD SVG 20010904//EN"
 "http://www.w3.org/TR/2001/REC-SVG-20010904/DTD/svg10.dtd">
<svg version="1.0" xmlns="http://www.w3.org/2000/svg"
 width="1633.000000pt" height="1805.000000pt" viewBox="0 0 1633.000000 1805.000000"
 preserveAspectRatio="xMidYMid meet">

<g transform="translate(0.000000,1805.000000) scale(0.100000,-0.100000)"
fill="#000000" stroke="none">
<path d="M4425 17940 c-479 -75 -983 -473 -1324 -1048 -376 -633 -619 -1548
-716 -2697 -32 -380 -37 -517 -42 -1077 -5 -519 4 -992 23 -1248 l6 -75 -129
-69 c-436 -236 -757 -460 -989 -690 -144 -143 -215 -237 -235 -308 -26 -98 47
-214 148 -234 l31 -6 -48 -74 c-67 -103 -108 -214 -127 -346 -19 -128 -9 -198
35 -250 45 -53 90 -66 297 -83 104 -9 190 -17 191 -18 2 -1 -31 -43 -72 -92
-412 -494 -756 -1071 -987 -1655 -279 -706 -395 -1390 -414 -2435 -21 -1210
172 -2187 584 -2950 88 -163 273 -438 376 -561 428 -507 987 -856 1643 -1023
110 -28 112 -29 220 -115 849 -676 1725 -912 2464 -666 217 72 420 180 608
323 l107 81 290 12 c602 25 1084 94 1617 230 l137 35 67 -21 c313 -96 715
-112 1227 -49 l168 21 132 -129 c342 -333 705 -511 1151 -564 147 -17 490 -6
641 20 341 60 666 171 1030 352 145 72 173 83 300 110 1205 256 2133 847 2698
1719 586 905 782 2069 591 3510 -118 892 -418 1994 -747 2745 -305 699 -715
1341 -1180 1848 -49 54 -88 99 -86 101 2 1 126 45 274 97 229 79 276 99 308
129 48 44 70 116 56 179 -19 84 -203 356 -343 507 l-66 72 53 6 c28 3 86 8
127 12 131 10 209 65 230 160 20 87 -10 142 -152 279 -246 239 -517 388 -859
474 l-147 37 30 64 c408 894 682 1867 772 2750 58 563 39 1167 -49 1601 -95
470 -330 748 -700 830 -89 20 -340 17 -447 -4 -369 -74 -803 -276 -1314 -612
-718 -472 -1534 -1166 -2478 -2107 l-389 -388 -131 65 c-224 111 -429 166
-704 187 -318 26 -730 -39 -1085 -170 -71 -26 -110 -36 -112 -28 -2 6 -31 99
-65 206 -328 1033 -746 1884 -1175 2390 -107 126 -308 316 -416 392 -158 113
-341 196 -514 234 -84 19 -307 26 -390 14z m356 -409 c163 -42 336 -149 506
-315 247 -238 463 -557 697 -1025 239 -477 481 -1104 651 -1686 53 -180 77
-225 138 -257 69 -36 124 -29 247 29 182 87 390 155 600 197 342 68 636 57
911 -34 139 -46 199 -75 343 -169 120 -78 155 -89 222 -71 55 16 65 25 372
345 327 342 857 847 1262 1203 1280 1125 2273 1706 2793 1633 243 -34 379
-207 446 -568 72 -388 84 -968 30 -1463 -92 -858 -353 -1766 -768 -2670 l-57
-125 -99 -7 c-203 -15 -256 -33 -305 -106 -16 -23 -25 -53 -28 -92 -6 -76 22
-136 80 -176 37 -26 49 -29 112 -28 363 6 427 5 528 -10 193 -30 328 -71 497
-153 76 -37 109 -58 100 -63 -8 -4 -50 -11 -94 -15 -280 -23 -300 -28 -354
-78 -42 -40 -61 -84 -61 -143 0 -91 58 -161 158 -190 156 -45 336 -185 494
-383 44 -54 56 -76 46 -82 -7 -3 -111 -41 -231 -83 l-218 -76 -87 78 c-697
632 -1608 1139 -2582 1436 -545 167 -1217 297 -1710 331 -52 4 -106 8 -119 10
-100 16 -536 27 -846 22 -357 -6 -490 -13 -780 -42 -2175 -217 -4249 -1130
-5652 -2489 l-134 -129 -222 17 c-122 10 -224 19 -225 21 -12 11 62 116 119
170 87 82 185 136 327 181 125 40 165 67 193 129 46 101 0 216 -103 260 -28
11 -74 15 -179 15 l-143 0 65 50 c213 168 587 393 978 590 217 109 244 125
269 162 23 35 27 52 27 109 0 59 -4 73 -30 110 -38 53 -95 84 -157 84 -46 0
-47 1 -52 35 -3 19 -11 213 -17 430 -49 1650 124 2978 502 3860 232 540 578
953 959 1144 206 104 384 128 581 77z m4164 -5181 c1235 -49 2264 -304 3223
-800 1037 -537 1882 -1346 2492 -2385 108 -185 319 -609 404 -815 299 -720
572 -1749 675 -2550 50 -384 56 -487 56 -930 -1 -458 -9 -582 -60 -885 -136
-801 -464 -1453 -983 -1957 -237 -230 -549 -453 -825 -589 l-82 -40 45 38
c314 266 756 687 785 750 38 80 29 155 -28 219 -53 61 -118 82 -195 62 -42
-10 -70 -34 -257 -217 -192 -188 -341 -324 -515 -471 -36 -30 -67 -57 -70 -60
-16 -18 -226 -182 -350 -274 -491 -365 -997 -641 -1429 -782 -279 -91 -447
-118 -726 -118 -238 0 -322 12 -501 69 -368 119 -754 452 -923 799 -66 136
-92 241 -98 394 -9 215 27 372 137 597 321 657 1231 1407 2505 2065 99 51 192
104 207 118 36 33 62 112 53 160 -16 91 -82 156 -167 168 -62 9 -90 -2 -343
-134 -843 -438 -1540 -931 -2036 -1439 -308 -317 -513 -611 -632 -908 -91
-229 -122 -400 -114 -638 7 -201 37 -333 118 -514 25 -56 26 -63 11 -67 -53
-16 -326 -28 -528 -23 -254 5 -356 19 -494 68 -162 58 -158 57 -326 11 -425
-117 -903 -198 -1379 -232 -77 -5 -145 -10 -152 -10 -7 0 9 42 37 98 186 368
189 789 10 1247 -236 603 -818 1307 -1672 2022 -405 339 -989 763 -1069 776
-118 18 -229 -75 -229 -194 0 -76 33 -125 130 -193 911 -636 1542 -1192 1998
-1761 303 -379 513 -782 567 -1090 19 -110 19 -291 1 -387 -52 -263 -211 -490
-488 -694 -316 -233 -613 -336 -968 -337 -390 -1 -792 130 -1225 400 -572 357
-1223 997 -1732 1706 -71 100 -113 127 -193 127 -90 0 -161 -54 -190 -143 -14
-44 -7 -94 20 -148 42 -82 334 -454 590 -751 l35 -41 -88 54 c-608 372 -1054
1006 -1291 1834 -154 541 -220 1085 -220 1815 0 644 46 1193 135 1630 146 711
464 1424 917 2050 947 1310 2499 2341 4363 2900 758 227 1634 375 2354 397
110 3 202 7 204 9 8 7 252 4 506 -6z"/>
<path d="M6277 9455 c-88 -23 -156 -118 -144 -204 10 -78 33 -107 152 -192
142 -101 348 -281 446 -390 299 -332 444 -621 475 -939 3 -41 15 -92 25 -112
37 -73 130 -117 209 -99 56 13 82 32 143 106 63 77 60 82 77 -131 14 -161 8
-416 -10 -478 -7 -23 -34 -62 -66 -96 -62 -65 -84 -111 -84 -175 0 -144 142
-230 297 -179 145 47 433 218 623 370 190 153 397 388 491 560 l42 75 36 -35
c42 -41 97 -66 143 -66 66 1 119 36 250 170 486 497 788 1028 815 1436 5 82 3
97 -17 138 -41 86 -137 132 -222 107 -54 -16 -103 -53 -124 -93 -9 -17 -23
-78 -30 -136 -8 -57 -23 -136 -35 -174 -73 -245 -263 -554 -528 -856 l-55 -63
-74 148 c-41 81 -86 161 -101 177 -92 100 -254 80 -319 -39 -13 -24 -17 -61
-17 -175 -1 -170 -14 -231 -80 -365 -56 -114 -147 -234 -265 -352 -83 -84
-236 -212 -262 -222 -8 -2 -9 16 -5 60 16 182 -52 726 -124 982 -21 77 -111
146 -189 147 -59 0 -119 -38 -185 -117 l-59 -72 -22 57 c-135 360 -485 786
-906 1103 -173 130 -214 147 -301 124z"/>
</g>
</svg>
